<svg width="22" height="14" viewBox="0 0 22 14" fill="none" xmlns="http://www.w3.org/2000/svg">
    <path fill-rule="evenodd" clip-rule="evenodd"
        d="M0 0.875C0 0.391751 0.410406 0 0.916667 0H21.0833C21.5896 0 22 0.391751 22 0.875C22 1.35825 21.5896 1.75 21.0833 1.75H0.916667C0.410406 1.75 0 1.35825 0 0.875ZM0 7C0 6.51675 0.410406 6.125 0.916667 6.125H21.0833C21.5896 6.125 22 6.51675 22 7C22 7.48325 21.5896 7.875 21.0833 7.875H0.916667C0.410406 7.875 0 7.48325 0 7ZM10.0833 13.125C10.0833 12.6418 10.4937 12.25 11 12.25H21.0833C21.5896 12.25 22 12.6418 22 13.125C22 13.6082 21.5896 14 21.0833 14H11C10.4937 14 10.0833 13.6082 10.0833 13.125Z"
        fill="#344E41" />
</svg>